<svg width="24" height="24" viewBox="0 0 24 24" fill="none" xmlns="http://www.w3.org/2000/svg">
<g id="icon / call-ringing">
<g id="icon">
<path fill-rule="evenodd" clip-rule="evenodd" d="M2.72673 6.38678C2.43866 5.18818 2.94369 4.08171 3.68206 3.34334L4.21759 2.8078C5.77969 1.24571 8.31235 1.2457 9.87445 2.8078L10.8033 3.73668C12.0766 5.00994 12.3421 6.97702 11.4521 8.54232L11.3972 8.63885C11.0324 9.28028 11.0622 10.0172 11.44 10.5392C11.7449 10.9604 12.0657 11.363 12.3493 11.6466C12.6329 11.9303 13.0355 12.2511 13.4568 12.5559C13.9788 12.9337 14.7157 12.9635 15.3571 12.5988L15.4536 12.5439C17.0189 11.6538 18.986 11.9194 20.2593 13.1926L21.1882 14.1215C22.7503 15.6836 22.7503 18.2163 21.1882 19.7784L20.6526 20.3139C19.9143 21.0523 18.8078 21.5573 17.6092 21.2692C15.7717 20.8276 12.4232 19.4987 8.46023 15.5357C4.49723 11.5727 3.16834 8.22429 2.72673 6.38678ZM5.09627 4.75755C4.70942 5.1444 4.58756 5.57078 4.67135 5.91942C5.02441 7.38846 6.16477 10.4118 9.87445 14.1215C13.5841 17.8312 16.6075 18.9715 18.0765 19.3246C18.4252 19.4084 18.8516 19.2865 19.2384 18.8997L19.7739 18.3642C20.555 17.5831 20.555 16.3168 19.7739 15.5357L18.8451 14.6068C18.2084 13.9702 17.2249 13.8374 16.4422 14.2825L16.3457 14.3374C15.1061 15.0423 13.5152 15.067 12.2842 14.1761C11.832 13.8489 11.3299 13.4556 10.9351 13.0609C10.5403 12.6661 10.1471 12.1639 9.81983 11.7118C8.92895 10.4808 8.95368 8.8899 9.65859 7.65025L9.71348 7.55371C10.1585 6.77106 10.0257 5.78752 9.38911 5.15089L8.46023 4.22202C7.67918 3.44097 6.41286 3.44097 5.63181 4.22202L5.09627 4.75755Z" fill="#FF7C00"/>
<path d="M18.0088 3.00649C18.6231 3.26912 19.1826 3.64811 19.656 4.12147C20.1294 4.59484 20.5083 5.15432 20.771 5.76869C21.0336 6.38311 21.1752 7.04139 21.1859 7.70647C21.1967 8.37163 21.0763 9.03068 20.8299 9.64544C20.7421 9.86447 20.639 10.0763 20.5214 10.2794C20.2447 10.7573 19.6329 10.9205 19.155 10.6438C18.677 10.367 18.5139 9.75525 18.7906 9.27729C18.8601 9.15715 18.9213 9.0316 18.9734 8.90144C19.1198 8.53627 19.1927 8.14136 19.1862 7.73873C19.1797 7.336 19.0939 6.93354 18.932 6.55485C18.7701 6.17611 18.5356 5.82955 18.2418 5.53569C17.9479 5.24182 17.6014 5.0074 17.2226 4.84549C16.8439 4.68361 16.4415 4.59778 16.0387 4.59129C15.6361 4.58479 15.2412 4.65768 14.876 4.80402C14.7459 4.85619 14.6203 4.91735 14.5002 4.9869C14.0222 5.26361 13.4104 5.10047 13.1337 4.62251C12.857 4.14455 13.0201 3.53276 13.4981 3.25605C13.7012 3.13847 13.913 3.03533 14.132 2.94756C14.7468 2.70119 15.4058 2.58081 16.071 2.59155C16.7361 2.60228 17.3944 2.74383 18.0088 3.00649Z" fill="#FF7C00"/>
<path d="M17.6204 6.20726C17.321 5.90786 16.9584 5.68518 16.559 5.54853C16.1605 5.41218 15.738 5.36553 15.3185 5.40074C14.8993 5.43592 14.4884 5.5522 14.1069 5.73586C13.8877 5.84138 13.6793 5.96859 13.4849 6.11437C13.0431 6.44574 12.9535 7.07254 13.2849 7.51437C13.6163 7.95619 14.2431 8.04574 14.6849 7.71437C14.7773 7.64504 14.8746 7.58594 14.9744 7.53792C15.1488 7.45395 15.3233 7.40736 15.4857 7.39373C15.6477 7.38014 15.7914 7.39971 15.9115 7.44081C16.0308 7.48162 16.1289 7.54417 16.2062 7.62147C16.2835 7.69878 16.3461 7.79692 16.3869 7.91618C16.428 8.03629 16.4476 8.17997 16.434 8.34198C16.4203 8.50435 16.3737 8.6789 16.2898 8.85333C16.2418 8.95308 16.1827 9.05035 16.1133 9.14279C15.782 9.58462 15.8715 10.2114 16.3133 10.5428C16.7552 10.8742 17.382 10.7846 17.7133 10.3428C17.8591 10.1484 17.9863 9.94004 18.0918 9.72084C18.2755 9.33932 18.3918 8.92841 18.427 8.50923C18.4622 8.08971 18.4155 7.66715 18.2792 7.26866C18.1425 6.86932 17.9198 6.50666 17.6204 6.20726Z" fill="#FF7C00"/>
</g>
</g>
</svg>
