<svg width="25" height="25" viewBox="0 0 25 25" fill="none" xmlns="http://www.w3.org/2000/svg">
<g id="icon / card">
<g id="icon">
<path d="M4.5 16.5C4.5 15.9477 4.94772 15.5 5.5 15.5H13.5C14.0523 15.5 14.5 15.9477 14.5 16.5C14.5 17.0523 14.0523 17.5 13.5 17.5H5.5C4.94772 17.5 4.5 17.0523 4.5 16.5Z" fill="black"/>
<path d="M16.5 15.5C15.9477 15.5 15.5 15.9477 15.5 16.5C15.5 17.0523 15.9477 17.5 16.5 17.5H18.5C19.0523 17.5 19.5 17.0523 19.5 16.5C19.5 15.9477 19.0523 15.5 18.5 15.5H16.5Z" fill="black"/>
<path fill-rule="evenodd" clip-rule="evenodd" d="M1.5 7C1.5 4.79086 3.29086 3 5.5 3H19.5C21.7091 3 23.5 4.79086 23.5 7V18C23.5 20.2091 21.7091 22 19.5 22H5.5C3.29086 22 1.5 20.2091 1.5 18V7ZM5.5 5C4.39543 5 3.5 5.89543 3.5 7V7.5H21.5V7C21.5 5.89543 20.6046 5 19.5 5H5.5ZM21.5 9.5H3.5V18C3.5 19.1046 4.39543 20 5.5 20H19.5C20.6046 20 21.5 19.1046 21.5 18V9.5Z" fill="black"/>
</g>
</g>
</svg>
