<svg width="191" height="191" viewBox="0 0 191 191" fill="none" xmlns="http://www.w3.org/2000/svg">
<g id="https://lottiefiles.com/animations/done-LvOkGfYE29" clip-path="url(#clip0_17_390)">
<g id="Clip path group">
<mask id="mask0_17_390" style="mask-type:luminance" maskUnits="userSpaceOnUse" x="0" y="0" width="191" height="191">
<g id="__lottie_element_871">
<path id="Vector" d="M191 0H0V191H191V0Z" fill="white"/>
</g>
</mask>
<g mask="url(#mask0_17_390)">
<g id="Group">
<g id="Clip path group_2">
<mask id="mask1_17_390" style="mask-type:luminance" maskUnits="userSpaceOnUse" x="-7" y="-7" width="205" height="205">
<g id="__lottie_element_892">
<path id="Vector_2" d="M-6.36682 -6.36676H197.367V197.367H-6.36682V-6.36676Z" fill="white"/>
</g>
</mask>
<g mask="url(#mask1_17_390)">
<g id="Group_2">
<g id="Clip path group_3">
<mask id="mask2_17_390" style="mask-type:luminance" maskUnits="userSpaceOnUse" x="-7" y="-7" width="205" height="205">
<g id="__lottie_element_896">
<path id="Vector_3" d="M-6.36682 -6.36673H197.367V197.367H-6.36682V-6.36673Z" fill="white"/>
</g>
</mask>
<g mask="url(#mask2_17_390)">
<g id="Group_3">
<g id="Group_4">
<g id="Group_5">
<path id="Vector_4" d="M31.4418 73.9508C32.1686 73.9508 32.7587 74.7834 32.7587 75.8089C32.7587 76.8344 32.1686 77.667 31.4418 77.667C30.7151 77.667 30.125 76.8344 30.125 75.8089C30.125 74.7834 30.7151 73.9508 31.4418 73.9508Z" fill="#FFD13B"/>
</g>
</g>
<g id="Group_6">
<g id="Group_7">
<path id="Vector_5" d="M110.618 59.4961L108.676 59.63L105.175 57.4283L107.117 57.2943L110.618 59.4961Z" fill="#FFB53B"/>
</g>
</g>
<g id="Group_8">
<g id="Group_9">
<path id="Vector_6" d="M114.01 116.371L111.765 116.919L108.164 114.365L110.409 113.817L114.01 116.371Z" fill="#8904B5"/>
</g>
</g>
<g id="Group_10">
<g id="Group_11">
<path id="Vector_7" d="M26.294 153.456L23.7315 153.958L19.4802 151.046L22.0427 150.544L26.294 153.456Z" fill="#FFC33B"/>
</g>
</g>
<g id="Group_12" opacity="0.999999">
<g id="Group_13">
<path id="Vector_8" d="M51.7603 64.8442L49.379 65.206L45.3098 62.502L47.6911 62.1402L51.7603 64.8442Z" fill="#FF922B"/>
</g>
</g>
<g id="Group_14">
<g id="Group_15">
<path id="Vector_9" d="M148.639 98.0111L146.28 98.8203L142.758 96.1309L145.118 95.3217L148.639 98.0111Z" fill="#9D2EC1"/>
</g>
</g>
<g id="Group_16">
<g id="Group_17">
<path id="Vector_10" d="M68.1651 98.7617L65.9198 100.476L63.6379 97.8958L65.8833 96.1811L68.1651 98.7617Z" fill="#FF533B"/>
</g>
</g>
<g id="Group_18">
<g id="Group_19">
<path id="Vector_11" d="M147.816 52.7472L152.635 52.602L150.806 56.5293L147.816 52.7472Z" fill="#FF922B"/>
</g>
</g>
<g id="Group_20">
<g id="Group_21">
<path id="Vector_12" d="M46.8244 94.7816L49.8063 93.9102L48.0762 97.6249L46.8244 94.7816Z" fill="#FF613B"/>
</g>
</g>
<g id="Group_22" opacity="0.999999">
<g id="Group_23">
<path id="Vector_13" d="M132.114 137.33L135.028 136.099L133.047 140.352L132.114 137.33Z" fill="#FF922B"/>
</g>
</g>
<g id="Group_24">
<g id="Group_25">
<path id="Vector_14" d="M53.8823 34.7124L51.897 36.0471L49.674 33.7694L51.6593 32.4347L53.8823 34.7124Z" fill="#8904B5"/>
</g>
</g>
<g id="Group_26">
<g id="Group_27">
<path id="Vector_15" d="M140.075 55.2282L138.078 56.2366L135.465 53.9539L137.462 52.9455L140.075 55.2282Z" fill="#9D2EC1"/>
</g>
</g>
<g id="Group_28">
<g id="Group_29">
<path id="Vector_16" d="M37.8678 102.189L42.3097 101.743L40.3851 105.876L37.8678 102.189Z" fill="#FCC852"/>
</g>
</g>
<g id="Group_30">
<g id="Group_31">
<path id="Vector_17" d="M142.397 161.241L147.374 160.942L145.371 165.242L142.397 161.241Z" fill="#FF922B"/>
</g>
</g>
<g id="Group_32">
<g id="Group_33">
<path id="Vector_18" d="M96.857 53.9878L101.038 53.1156L98.8795 57.7491L96.857 53.9878Z" fill="#FF922B"/>
</g>
</g>
<g id="Group_34" opacity="0.999999">
<g id="Group_35">
<path id="Vector_19" d="M56.4856 143.12L60.2451 142.283L58.2642 146.536L56.4856 143.12Z" fill="#FFA855"/>
</g>
</g>
<g id="Group_36">
<g id="Group_37">
<path id="Vector_20" d="M124.825 73.1371L128.471 72.7663L126.887 76.1665L124.825 73.1371Z" fill="#FFA855"/>
</g>
</g>
<g id="Group_38">
<g id="Group_39">
<path id="Vector_21" d="M134.488 37.1841C134.565 35.0235 134.782 32.8775 135.126 30.8696" stroke="#FCD452" stroke-width="6.76837"/>
</g>
</g>
<g id="Group_40">
<g id="Group_41">
<path id="Vector_22" d="M110.218 140.62C111.976 140.902 113.649 141.289 115.083 141.946" stroke="#8904B5" stroke-width="6.81779"/>
</g>
</g>
<g id="Group_42">
<g id="Group_43">
<path id="Vector_23" d="M65.623 51.9287C62.9309 51.3346 60.4918 49.9876 58.4788 47.3198" stroke="#FCA452" stroke-width="5.39488"/>
</g>
</g>
<g id="Group_44">
<g id="Group_45">
<path id="Vector_24" d="M125.337 100.546C126.693 99.5867 128.264 99.0509 130.275 99.2743" stroke="#FF922B" stroke-width="1.47645"/>
</g>
</g>
<g id="Group_46">
<g id="Group_47">
<path id="Vector_25" d="M36.5987 143.481C36.9022 145.331 36.8767 147.51 36.6073 149.689" stroke="#FFA855" stroke-width="4.56262"/>
</g>
</g>
<g id="Group_48">
<g id="Group_49">
<path id="Vector_26" d="M28.489 36.9131C26.1171 38.3706 24.0401 40.3051 21.856 41.5471" stroke="#FF922B" stroke-width="3.209"/>
</g>
</g>
</g>
</g>
</g>
<g id="Clip path group_4">
<mask id="mask3_17_390" style="mask-type:luminance" maskUnits="userSpaceOnUse" x="-7" y="-7" width="205" height="205">
<g id="__lottie_element_954">
<path id="Vector_27" d="M197.367 197.366H-6.36641V-6.36717H197.367V197.366Z" fill="white"/>
</g>
</mask>
<g mask="url(#mask3_17_390)">
<g id="Group_50">
<g id="Group_51">
<g id="Group_52">
<path id="Vector_28" d="M141.906 113.362C141.139 113.362 140.517 112.985 140.517 112.52C140.517 112.056 141.139 111.679 141.906 111.679C142.672 111.679 143.295 112.056 143.295 112.52C143.295 112.985 142.672 113.362 141.906 113.362Z" fill="#FFAC23"/>
</g>
</g>
<g id="Group_53" opacity="0.783234">
<g id="Group_54">
<path id="Vector_29" d="M96.2344 97.0606L93.7775 95.0715L95.582 90.9535L98.0389 92.9426L96.2344 97.0606Z" fill="#8904B5"/>
</g>
</g>
<g id="Group_55">
<g id="Group_56">
<path id="Vector_30" d="M155.087 58.1863L153.633 56.7425L154.769 53.6692L156.223 55.113L155.087 58.1863Z" fill="#FF9C23"/>
</g>
</g>
<g id="Group_57" opacity="0.999999">
<g id="Group_58">
<path id="Vector_31" d="M47.6196 103.215L45.3325 100.493L47.2347 94.5827L49.5218 97.3049L47.6196 103.215Z" fill="#FF9C23"/>
</g>
</g>
<g id="Group_59">
<g id="Group_60">
<path id="Vector_32" d="M121.098 107.291L120.353 104.838L121.373 99.1744L122.118 101.628L121.098 107.291Z" fill="#8904B5"/>
</g>
</g>
<g id="Group_61" opacity="0.999999">
<g id="Group_62">
<path id="Vector_33" d="M121.281 120.332L123.963 123.731L118.052 123.217L121.281 120.332Z" fill="#8904B5"/>
</g>
</g>
<g id="Group_63">
<g id="Group_64">
<path id="Vector_34" d="M58.3191 66.3801L60.4738 71.9602L55.2328 71.5041L58.3191 66.3801Z" fill="#FFB423"/>
</g>
</g>
<g id="Group_65" opacity="0.999999">
<g id="Group_66">
<path id="Vector_35" d="M31.329 49.9046C31.3577 49.083 32.0259 48.4385 32.8204 48.4662C33.6148 48.494 34.2365 49.1835 34.2078 50.0051C34.1791 50.8267 33.5108 51.4712 32.7164 51.4435C31.922 51.4157 31.3003 50.7261 31.329 49.9046Z" fill="#FFA423"/>
</g>
</g>
<g id="Group_67" opacity="0.999999">
<g id="Group_68">
<path id="Vector_36" d="M105.385 125.97L103.527 123.852L105.048 119.273L106.907 121.391L105.385 125.97Z" fill="#8904B5"/>
</g>
</g>
<g id="Group_69" opacity="0.999999">
<g id="Group_70">
<path id="Vector_37" d="M50.8874 129.653L48.5707 127.957L50.2265 124.5L52.5432 126.197L50.8874 129.653Z" fill="#8904B5"/>
</g>
</g>
<g id="Group_71">
<g id="Group_72">
<path id="Vector_38" d="M89.2575 41.4736L86.7449 39.2548L88.6375 34.6031L91.1501 36.8219L89.2575 41.4736Z" fill="#FCC252"/>
</g>
</g>
<g id="Group_73">
<g id="Group_74">
<path id="Vector_39" d="M73.1464 31.836L73.9404 35.0322L71.8122 34.847L73.1464 31.836Z" fill="#FCB052"/>
</g>
</g>
<g id="Group_75" opacity="0.999999">
<g id="Group_76">
<path id="Vector_40" d="M85.0013 135.198L86.8798 138.265L82.6211 137.894L85.0013 135.198Z" fill="#8904B5"/>
</g>
</g>
<g id="Group_77" opacity="0.999999">
<g id="Group_78">
<path id="Vector_41" d="M110.25 49.8855L112.267 54.0623L107.542 53.6511L110.25 49.8855Z" fill="#FCAA52"/>
</g>
</g>
<g id="Group_79" opacity="0.999999">
<g id="Group_80">
<path id="Vector_42" d="M79.7463 115.79L82.0397 119.449L76.8553 118.997L79.7463 115.79Z" fill="#8904B5"/>
</g>
</g>
<g id="Group_81" opacity="0.895404">
<g id="Group_82">
<path id="Vector_43" d="M92.7412 95.2479C88.7008 96.4572 80.5021 100.179 76.4008 111.018C73.2146 119.438 80.2856 123.319 82.9819 132.361" stroke="#FFBA00" stroke-width="6.87444"/>
</g>
</g>
<g id="Group_83">
<g id="Group_84">
<path id="Vector_44" d="M95.3223 68.8338C96.4316 66.263 96.8884 62.6027 96.0574 57.6176C95.9025 56.6874 95.6157 55.8964 95.2196 55.2211" stroke="#8904B5" stroke-width="7.71896"/>
</g>
</g>
<g id="Group_85">
<g id="Group_86">
<path id="Vector_45" d="M83.3872 88.7099C85.7668 84.2392 86.4212 79.3833 81.2082 79.194C80.1344 79.1549 79.1601 79.2452 78.2688 79.4397" stroke="#8904B5" stroke-width="4.15118"/>
</g>
</g>
<g id="Group_87" opacity="0.971677">
<g id="Group_88">
<path id="Vector_46" d="M145.558 133.667C147.971 131.884 151.257 130.296 151.861 134.247C154.001 148.237 164.667 145.327 163.128 141.264C163.043 141.04 162.919 140.864 162.76 140.731" stroke="#8904B5" stroke-width="3.40817"/>
</g>
</g>
</g>
</g>
</g>
</g>
</g>
</g>
<g id="Clip path group_5">
<mask id="mask4_17_390" style="mask-type:luminance" maskUnits="userSpaceOnUse" x="51" y="51" width="89" height="89">
<g id="__lottie_element_873">
<path id="Vector_47" d="M51.3577 51.3576H139.642V139.642H51.3577V51.3576Z" fill="white"/>
</g>
</mask>
<g mask="url(#mask4_17_390)">
<g id="Group_89">
<g id="Group_90" opacity="0.214127">
<g id="Group_91">
<path id="Vector_48" d="M95.3275 54.5243C117.474 54.5243 135.455 72.5054 135.455 94.6517C135.455 116.798 117.474 134.779 95.3275 134.779C73.1812 134.779 55.2001 116.798 55.2001 94.6517C55.2001 72.5054 73.1812 54.5243 95.3275 54.5243Z" fill="#8904B5"/>
</g>
</g>
<g id="Group_92" opacity="0.685543">
<g id="Group_93">
<path id="Vector_49" d="M95.3279 63.3664C112.715 63.3664 126.832 77.4833 126.832 94.8703C126.832 112.257 112.715 126.374 95.3279 126.374C77.9409 126.374 63.824 112.257 63.824 94.8703C63.824 77.4833 77.9409 63.3664 95.3279 63.3664Z" fill="#7A7A7B"/>
</g>
</g>
<g id="Group_94">
<g id="Group_95">
<path id="Vector_50" d="M95.3274 64.1665C112.284 64.1665 126.051 77.9337 126.051 94.8901C126.051 111.846 112.284 125.614 95.3274 125.614C78.371 125.614 64.6038 111.846 64.6038 94.8901C64.6038 77.9337 78.371 64.1665 95.3274 64.1665Z" fill="#8904B5"/>
</g>
</g>
<g id="Group_96">
<g id="Group_97">
<path id="Vector_51" d="M81.2745 96.275L90.1547 104.983L108.087 86.4465" stroke="white" stroke-width="5.17292" stroke-linecap="round" stroke-linejoin="round"/>
</g>
</g>
</g>
</g>
</g>
</g>
</g>
</g>
</g>
<defs>
<clipPath id="clip0_17_390">
<rect width="191" height="191" fill="white"/>
</clipPath>
</defs>
</svg>
