<svg width="19" height="19" viewBox="0 0 19 19" fill="none" xmlns="http://www.w3.org/2000/svg">
<g id="icon / eye-slash">
<g id="icon">
<path d="M16.3929 2.60687C16.7021 2.91604 16.7021 3.41729 16.3929 3.72646L3.72627 16.3931C3.4171 16.7023 2.91585 16.7023 2.60668 16.3931C2.29751 16.084 2.29751 15.5827 2.60668 15.2735L15.2733 2.60687C15.5825 2.29771 16.0838 2.29771 16.3929 2.60687Z" fill="white"/>
<path d="M12.5078 4.25287C11.6161 3.83296 10.6107 3.5625 9.49979 3.5625C7.16905 3.5625 5.30299 4.75292 3.97682 6.01641C2.64759 7.28281 1.7851 8.69225 1.44368 9.30193C1.21994 9.70147 1.19329 10.1785 1.37695 10.6023C1.50521 10.8982 1.72333 11.3566 2.04482 11.8886C2.27097 12.2628 2.75764 12.3829 3.13184 12.1567C3.50604 11.9306 3.62607 11.4439 3.39992 11.0697C3.14135 10.6418 2.96191 10.2718 2.85308 10.026C3.1743 9.45989 3.93506 8.24308 5.06898 7.16277C6.24023 6.04688 7.73441 5.14583 9.49979 5.14583C10.1348 5.14583 10.7346 5.2624 11.297 5.4636L12.5078 4.25287Z" fill="white"/>
<path d="M14.0048 7.23416C15.0977 8.29624 15.8323 9.47233 16.1465 10.026C16.0377 10.2718 15.8582 10.6418 15.5997 11.0697C15.3735 11.4439 15.4935 11.9306 15.8677 12.1567C16.2419 12.3829 16.7286 12.2628 16.9548 11.8886C17.2763 11.3566 17.4944 10.8982 17.6226 10.6023C17.8063 10.1785 17.7796 9.70147 17.5559 9.30193C17.2233 8.70794 16.3961 7.35484 15.1245 6.11448L14.0048 7.23416Z" fill="white"/>
<path d="M9.49981 6.33333C9.78751 6.33333 10.068 6.36403 10.3383 6.42232L8.7092 8.05143C8.03352 8.28989 7.49803 8.82538 7.25957 9.50106L5.63046 11.1302C5.57217 10.8599 5.54147 10.5794 5.54147 10.2917C5.54147 8.10554 7.31368 6.33333 9.49981 6.33333Z" fill="white"/>
<path d="M9.49981 12.6667C9.22203 12.6667 8.95539 12.619 8.70763 12.5313L7.51931 13.7197C8.10182 14.0569 8.77827 14.25 9.49981 14.25C11.6859 14.25 13.4581 12.4778 13.4581 10.2917C13.4581 9.57013 13.2651 8.89368 12.9278 8.31117L11.7395 9.49949C11.8271 9.74725 11.8748 10.0139 11.8748 10.2917C11.8748 11.6033 10.8115 12.6667 9.49981 12.6667Z" fill="white"/>
</g>
</g>
</svg>
