<svg width="25" height="24" viewBox="0 0 25 24" fill="none" xmlns="http://www.w3.org/2000/svg">
<g id="icon / file">
<g id="icon">
<path d="M7.5 12C7.5 11.4477 7.94772 11 8.5 11H16.5C17.0523 11 17.5 11.4477 17.5 12C17.5 12.5523 17.0523 13 16.5 13H8.5C7.94772 13 7.5 12.5523 7.5 12Z" fill="black"/>
<path d="M8.5 16C7.94772 16 7.5 16.4477 7.5 17C7.5 17.5523 7.94772 18 8.5 18H16.5C17.0523 18 17.5 17.5523 17.5 17C17.5 16.4477 17.0523 16 16.5 16H8.5Z" fill="black"/>
<path fill-rule="evenodd" clip-rule="evenodd" d="M7.5 1C5.29086 1 3.5 2.79086 3.5 5V19C3.5 21.2091 5.29086 23 7.5 23H17.5C19.7091 23 21.5 21.2091 21.5 19V9.08615C21.5 8.1504 21.1719 7.24427 20.5729 6.52541L17.1678 2.43926C16.4078 1.52729 15.282 1 14.0949 1H7.5ZM5.5 5C5.5 3.89543 6.39543 3 7.5 3H13.5V6C13.5 8.20914 15.2909 10 17.5 10H19.5V19C19.5 20.1046 18.6046 21 17.5 21H7.5C6.39543 21 5.5 20.1046 5.5 19V5ZM19.1794 8C19.1359 7.93274 19.0882 7.86786 19.0364 7.80578L15.6313 3.71963C15.5897 3.66966 15.5458 3.622 15.5 3.57674V6C15.5 7.10457 16.3954 8 17.5 8H19.1794Z" fill="black"/>
</g>
</g>
</svg>
