<svg width="24" height="24" viewBox="0 0 24 24" fill="none" xmlns="http://www.w3.org/2000/svg">
<g id="icon / headset">
<path id="icon" fill-rule="evenodd" clip-rule="evenodd" d="M12 3C6.47715 3 1.99999 7.47715 1.99999 13V15.9841C1.9998 15.9956 1.9998 16.007 1.99999 16.0183V18.4118C1.99999 19.8412 3.15879 21 4.58823 21C6.01767 21 7.17647 19.8412 7.17647 18.4118V16.2507C7.17647 14.3089 5.46162 13.4095 3.99999 13.7078V13C3.99999 8.58172 7.58172 5 12 5C16.4183 5 20 8.58172 20 13V13.6972C18.5388 13.3985 16.8235 14.2952 16.8235 16.2389V18.4118C16.8235 18.8882 16.9523 19.3346 17.1769 19.718C16.2917 20.1581 15.0839 20.5 13.5 20.5C12.9477 20.5 12.5 20.9478 12.5 21.5C12.5 22.0523 12.9477 22.5 13.5 22.5C15.9439 22.5 17.7555 21.8106 18.9964 20.9669C19.1316 20.9887 19.2704 21 19.4118 21C20.8412 21 22 19.8412 22 18.4118V16.0178C22.0002 16.0068 22.0002 15.9958 22 15.9847V13C22 7.47715 17.5228 3 12 3ZM19.2519 18.978C19.3028 18.9923 19.3564 19 19.4118 19C19.7366 19 20 18.7366 20 18.4118V16.0882C19.9589 15.8995 19.8739 15.8038 19.7962 15.7481C19.6952 15.6756 19.5459 15.6306 19.376 15.6433C19.206 15.6561 19.0652 15.723 18.9761 15.8098C18.9006 15.8833 18.8235 16.0063 18.8235 16.2389V18.4118C18.8235 18.631 18.9435 18.8222 19.1213 18.9234C19.1659 18.9384 19.2096 18.9567 19.2519 18.978ZM3.99999 18.4118V16.0927C4.04257 15.907 4.12745 15.8125 4.20522 15.7573C4.30677 15.6853 4.45602 15.641 4.6254 15.6544C4.79478 15.6678 4.93523 15.7349 5.02422 15.822C5.09982 15.8959 5.17647 16.0191 5.17647 16.2507V18.4118C5.17647 18.7366 4.9131 19 4.58823 19C4.26336 19 3.99999 18.7366 3.99999 18.4118Z" fill="black"/>
</g>
</svg>
