<svg width="24" height="25" viewBox="0 0 24 25" fill="none" xmlns="http://www.w3.org/2000/svg">
<g id="icon / home">
<path id="icon" fill-rule="evenodd" clip-rule="evenodd" d="M14.2945 2.88494C12.9172 1.92084 11.0841 1.92084 9.70681 2.88494L2.82923 7.69924C1.67061 8.51027 1.02639 9.87285 1.13486 11.283L1.83988 20.4482C1.97285 22.1768 3.53905 23.4331 5.25531 23.188L8.42492 22.7352C9.90287 22.524 11.0007 21.2583 11.0007 19.7653V18.4999C11.0007 17.9476 11.4484 17.4999 12.0007 17.4999C12.5529 17.4999 13.0007 17.9476 13.0007 18.4999V19.7653C13.0007 21.2583 14.0984 22.524 15.5764 22.7352L18.746 23.188C20.4623 23.4331 22.0285 22.1768 22.1614 20.4482L22.8665 11.283C22.9749 9.87285 22.3307 8.51027 21.1721 7.69924L14.2945 2.88494ZM10.8537 4.5234C11.5424 4.04135 12.4589 4.04135 13.1476 4.5234L20.0252 9.33771C20.6045 9.74322 20.9266 10.4245 20.8723 11.1296L20.1673 20.2948C20.123 20.871 19.6009 21.2898 19.0289 21.2081L15.8592 20.7553C15.3666 20.6849 15.0007 20.263 15.0007 19.7653V18.4999C15.0007 16.843 13.6575 15.4999 12.0007 15.4999C10.3438 15.4999 9.00066 16.843 9.00066 18.4999V19.7653C9.00066 20.263 8.63473 20.6849 8.14208 20.7553L4.97246 21.2081C4.40038 21.2898 3.87831 20.871 3.83399 20.2948L3.12897 11.1296C3.07474 10.4245 3.39685 9.74322 3.97616 9.3377L10.8537 4.5234Z" fill="#8904B5"/>
</g>
</svg>
