<svg width="169" height="42" viewBox="0 0 169 42" fill="none" xmlns="http://www.w3.org/2000/svg">
<g id="Vector">
<g id="Vector_2">
<path d="M11.7164 1.45733C3.14283 1.74825 -0.193527 10.9958 0.00862216 18.9905C0.215429 27.1693 5.29315 29.982 12.4391 37C18.9638 31.1049 24.3905 24.6242 24.8701 18.7087C25.6922 8.56782 20.29 1.16641 11.7164 1.45733Z" fill="#720397"/>
<path d="M20.5172 13.2321C20.5172 17.2631 16.9006 22.5159 12.4391 22.5159C7.97775 22.5159 4.36107 17.2631 4.36107 13.2321C4.36107 9.20118 7.97775 5.93346 12.4391 5.93346C16.9006 5.93346 20.5172 9.20118 20.5172 13.2321Z" fill="white"/>
<path d="M37.1074 13.0191H37.9946C39.6359 10.121 41.8982 7.9363 45.447 7.9363C49.8386 7.9363 52.2784 11.0573 52.2784 15.8726V32.1019H45.8019V17.879C45.8019 15.2038 44.338 13.465 41.7652 13.465C39.2366 13.465 37.1074 15.7389 37.1074 18.1019V32.1019H30.6308V8.6051H36.5307L37.1074 13.0191Z" fill="#383838"/>
<path d="M72.606 24.3439H78.5059C76.9533 29.4713 72.3842 32.7707 67.1497 32.7707C59.786 32.7707 54.9951 27.8217 54.9951 20.4204C54.9951 12.9745 59.8304 7.9363 67.1941 7.9363C74.2917 7.9363 78.8164 13.0637 78.8164 20.9554V21.8917H61.1612C61.516 25.5032 63.8671 27.8662 67.2828 27.8662C69.6339 27.8662 71.6744 26.5287 72.606 24.3439ZM61.2055 18.5924H72.9609C72.6504 15.2038 70.388 12.7962 67.1941 12.7962C64.0002 12.7962 61.6935 15.1592 61.2055 18.5924Z" fill="#383838"/>
<path d="M82.1922 32.1019V0H94.7017C103.574 0 107.744 4.94904 107.744 11.414C107.744 17.9236 103.441 22.5159 94.7017 22.5159H88.8019V32.1019H82.1922ZM88.8019 17.2548H94.3912C98.9159 17.2548 101.134 15.0701 101.134 11.414C101.134 7.80255 99.049 5.57325 94.3912 5.57325H88.8019V17.2548Z" fill="#383838"/>
<path d="M110.518 32.1019V0H116.995V32.1019H110.518Z" fill="#383838"/>
<path d="M136.163 27.7325H135.231C133.9 30.586 131.505 32.7707 128.222 32.7707C123.564 32.7707 120.992 29.293 120.992 24.4777V8.6051H127.468V22.828C127.468 25.5032 128.932 27.242 131.46 27.242C134.033 27.242 136.163 25.0127 136.163 22.6497V8.6051H142.639V32.1019H136.739L136.163 27.7325Z" fill="#383838"/>
<path d="M146.154 34.1083H152.143C152.764 35.9363 154.76 37.0955 157.022 37.0955C160.616 37.0955 162.567 34.242 162.567 30.4522L162.523 27.465H161.592C160.837 30.6306 158.309 32.7707 155.071 32.7707C149.437 32.7707 145.711 27.9554 145.711 20.5987C145.711 13.0637 149.614 7.9363 155.292 7.9363C158.398 7.9363 160.704 9.76433 161.592 13.0637H162.523L163.1 8.6051H169V30.4522C169.044 37.8981 164.874 42 156.845 42C151.477 42 147.042 39.1911 146.154 34.1083ZM157.377 13.5541C154.272 13.5541 152.187 16.3185 152.187 20.3758C152.187 24.4331 154.272 27.1975 157.377 27.1975C160.394 27.1975 162.523 24.6115 162.523 20.465C162.523 16.4968 160.438 13.5541 157.377 13.5541Z" fill="#383838"/>
</g>
</g>
</svg>
