<svg width="24" height="25" viewBox="0 0 24 25" fill="none" xmlns="http://www.w3.org/2000/svg">
<g id="icon / scan">
<g id="icon">
<path d="M2 6.5C2 4.29086 3.79086 2.5 6 2.5H8C8.55228 2.5 9 2.94772 9 3.5C9 4.05228 8.55228 4.5 8 4.5H6C4.89543 4.5 4 5.39543 4 6.5V8.5C4 9.05228 3.55228 9.5 3 9.5C2.44772 9.5 2 9.05228 2 8.5V6.5Z" fill="#9D2EC1"/>
<path d="M22 6.5C22 4.29086 20.2091 2.5 18 2.5H16C15.4477 2.5 15 2.94772 15 3.5C15 4.05228 15.4477 4.5 16 4.5H18C19.1046 4.5 20 5.39543 20 6.5V8.5C20 9.05228 20.4477 9.5 21 9.5C21.5523 9.5 22 9.05228 22 8.5V6.5Z" fill="#9D2EC1"/>
<path d="M6 22.5C3.79086 22.5 2 20.7091 2 18.5V16.5C2 15.9477 2.44772 15.5 3 15.5C3.55228 15.5 4 15.9477 4 16.5V18.5C4 19.6046 4.89543 20.5 6 20.5H8C8.55228 20.5 9 20.9477 9 21.5C9 22.0523 8.55228 22.5 8 22.5H6Z" fill="#9D2EC1"/>
<path d="M22 18.5C22 20.7091 20.2091 22.5 18 22.5H16C15.4477 22.5 15 22.0523 15 21.5C15 20.9477 15.4477 20.5 16 20.5H18C19.1046 20.5 20 19.6046 20 18.5V16.5C20 15.9477 20.4477 15.5 21 15.5C21.5523 15.5 22 15.9477 22 16.5V18.5Z" fill="#9D2EC1"/>
<path d="M2 12.5C1.44772 12.5 1 12.9477 1 13.5C1 14.0523 1.44772 14.5 2 14.5H22C22.5523 14.5 23 14.0523 23 13.5C23 12.9477 22.5523 12.5 22 12.5H2Z" fill="#9D2EC1"/>
</g>
</g>
</svg>
