<svg width="24" height="24" viewBox="0 0 24 24" fill="none" xmlns="http://www.w3.org/2000/svg">
<g id="icon / send-alt">
<path id="icon" fill-rule="evenodd" clip-rule="evenodd" d="M5.52511 12.8358C6.17582 13.5088 7.13676 13.7532 8.01345 13.5008C7.35648 14.1338 7.08769 15.0882 7.34515 15.9882L8.46106 19.8892C9.03538 21.8969 11.6723 22.3573 12.893 20.663L21.9566 8.08321C23.2165 6.33452 21.8212 3.9177 19.6768 4.13447L4.25056 5.69386C2.17292 5.90388 1.25318 8.41773 2.70475 9.91897L5.52511 12.8358ZM9.47138 14.8846L19.3238 8.31602L11.2703 19.4939C11.0262 19.8328 10.4988 19.7407 10.3839 19.3391L9.26802 15.4382C9.2082 15.2291 9.29042 15.0053 9.47138 14.8846ZM7.54397 11.5463L18.1588 6.29811L4.45171 7.68372L4.35114 6.68879L4.45171 7.68372C4.03618 7.72573 3.85224 8.2285 4.14255 8.52874L6.96292 11.4456C7.11409 11.602 7.34901 11.6427 7.54397 11.5463Z" fill="#9D2EC1"/>
</g>
</svg>
