<svg width="24" height="24" viewBox="0 0 24 24" fill="none" xmlns="http://www.w3.org/2000/svg">
<g id="icon / sign-out">
<g id="icon">
<path d="M16.5 20C15.9477 20 15.5 20.4477 15.5 21C15.5 21.5523 15.9477 22 16.5 22L18 22C20.2091 22 22 20.2091 22 18L22 6C22 3.79086 20.2091 2 18 2L16.5 2C15.9477 2 15.5 2.44772 15.5 3C15.5 3.55228 15.9477 4 16.5 4L18 4C19.1046 4 20 4.89543 20 6L20 18C20 19.1046 19.1046 20 18 20L16.5 20Z" fill="#ED0006"/>
<path d="M1.2929 11.2929C0.902369 11.6834 0.902369 12.3166 1.29289 12.7071L5.29289 16.7071C5.68342 17.0976 6.31658 17.0976 6.70711 16.7071C7.09763 16.3166 7.09763 15.6834 6.70711 15.2929L4.41421 13L16 13C16.5523 13 17 12.5523 17 12C17 11.4477 16.5523 11 16 11L4.41421 11L6.70711 8.70711C7.09763 8.31658 7.09763 7.68342 6.70711 7.29289C6.31658 6.90237 5.68342 6.90237 5.2929 7.29289L1.2929 11.2929Z" fill="#ED0006"/>
</g>
</g>
</svg>
