<svg width="25" height="25" viewBox="0 0 25 25" fill="none" xmlns="http://www.w3.org/2000/svg">
<g id="icon / switch-diagonal">
<g id="icon">
<path d="M11.0857 1.60059C10.5335 1.60059 10.0857 2.0483 10.0857 2.60059C10.0857 3.15287 10.5335 3.60059 11.0857 3.60059H12.9142L1.89336 14.6214C1.50283 15.0119 1.50283 15.6451 1.89336 16.0356C2.28388 16.4261 2.91705 16.4261 3.30757 16.0356L14.3284 5.0148V6.84323C14.3284 7.39551 14.7761 7.84323 15.3284 7.84323C15.8807 7.84323 16.3284 7.39551 16.3284 6.84323V2.60059C16.3284 2.0483 15.8807 1.60059 15.3284 1.60059H11.0857Z" fill="black"/>
<path d="M23.1066 10.3789C23.4971 9.98834 23.4971 9.35517 23.1066 8.96465C22.716 8.57412 22.0829 8.57412 21.6924 8.96465L10.6715 19.9855V18.157C10.6715 17.6047 10.2238 17.157 9.67154 17.157C9.11925 17.157 8.67154 17.6047 8.67154 18.157V22.3997C8.67154 22.952 9.11925 23.3997 9.67154 23.3997H13.9142C14.4665 23.3997 14.9142 22.952 14.9142 22.3997C14.9142 21.8474 14.4665 21.3997 13.9142 21.3997H12.0858L23.1066 10.3789Z" fill="black"/>
</g>
</g>
</svg>
