<svg width="25" height="25" viewBox="0 0 25 25" fill="none" xmlns="http://www.w3.org/2000/svg">
<g id="icon / user">
<g id="icon">
<path fill-rule="evenodd" clip-rule="evenodd" d="M12.5 2.5C9.73858 2.5 7.5 4.73858 7.5 7.5C7.5 10.2614 9.73858 12.5 12.5 12.5C15.2614 12.5 17.5 10.2614 17.5 7.5C17.5 4.73858 15.2614 2.5 12.5 2.5ZM9.5 7.5C9.5 5.84315 10.8431 4.5 12.5 4.5C14.1569 4.5 15.5 5.84315 15.5 7.5C15.5 9.15685 14.1569 10.5 12.5 10.5C10.8431 10.5 9.5 9.15685 9.5 7.5Z" fill="black"/>
<path fill-rule="evenodd" clip-rule="evenodd" d="M12.5 23.5C10.9595 23.5 8.72982 23.1502 7.05543 22.4174C6.23343 22.0576 5.39745 21.5427 4.91175 20.7974C4.65632 20.4054 4.49483 19.9437 4.50013 19.4282C4.50537 18.9174 4.67344 18.4281 4.95591 17.9728C6.32532 15.7656 9.12679 13.5 12.5 13.5C15.8732 13.5 18.6747 15.7656 20.0441 17.9728C20.3266 18.4281 20.4946 18.9174 20.4999 19.4282C20.5052 19.9437 20.3437 20.4054 20.0882 20.7974C19.6025 21.5427 18.7666 22.0576 17.9446 22.4174C16.2702 23.1502 14.0405 23.5 12.5 23.5ZM6.65539 19.0272C6.52372 19.2394 6.50077 19.3757 6.50002 19.4487C6.49932 19.517 6.51686 19.5973 6.58736 19.7055C6.75354 19.9605 7.15707 20.2787 7.85732 20.5852C9.22744 21.1848 11.1732 21.5 12.5 21.5C13.8268 21.5 15.7726 21.1848 17.1427 20.5852C17.8429 20.2787 18.2465 19.9605 18.4126 19.7055C18.4831 19.5973 18.5007 19.517 18.5 19.4487C18.4992 19.3757 18.4763 19.2394 18.3446 19.0272C17.2225 17.2185 14.9843 15.5 12.5 15.5C10.0157 15.5 7.77754 17.2185 6.65539 19.0272Z" fill="black"/>
</g>
</g>
</svg>
