<svg width="65" height="12" viewBox="0 0 65 12" fill="none" xmlns="http://www.w3.org/2000/svg">
<path id="Vector" d="M64.2132 3.22086H62.8067C62.5598 3.22086 62.3021 3.46779 62.3021 3.46779L56.977 10.4571C56.8804 10.6074 56.7301 10.6074 56.6227 10.4571L51.6518 3.46779C51.6518 3.46779 51.4478 3.22086 51.1043 3.22086H41.6564C41.5061 3.22086 41.3558 3.07055 41.3558 2.92025V0.611963C41.3558 0.257668 41.1089 0.0107352 40.7546 0.0107352H26.2285C23.9632 0.107361 23.0077 0.31135 22.0092 0.912577C21.0537 1.46012 20.5491 2.16871 20.5491 3.02761C20.5491 3.92945 21.3006 4.83129 22.7607 5.69018C23.158 5.93712 24.5215 6.59202 26.8298 7.65491C28.2899 8.3635 29.0951 8.91104 29.0414 9.45859C28.9448 10.3604 28.1396 10.661 26.2285 10.661H17.4356C17.2316 10.661 17.0383 10.6074 17.0383 10.4571C17.0383 10.3604 17.092 10.3067 17.1887 10.2531C19.1534 9.05061 19.7975 7.49387 19.7975 6.03374C19.7975 3.27454 17.5322 0 8.49233 0H0.601228C0.246933 0 0 0.246932 0 0.601226V11.3589C0 11.7132 0.246933 11.9601 0.601228 11.9601H8.49233C8.79294 11.9601 9.09356 11.9601 9.35123 11.9601H29.0951C30.8988 11.9601 32.3159 11.6595 33.3144 11.0583C34.2699 10.5107 34.7209 9.80215 34.7209 8.94325C34.7209 8.04141 33.9693 7.18251 32.5092 6.28067C32.1549 6.03374 30.7485 5.37883 28.4402 4.31595C26.9801 3.66104 26.2285 3.1135 26.2285 2.66258C26.2285 1.76074 27.184 1.30982 29.0951 1.30982H35.773C35.9233 1.30982 36.0736 1.46012 36.0736 1.61043V9.39417C36.0736 10.5537 36.8251 11.9064 39.1334 11.9064H57.4709C57.9218 11.9064 58.1258 11.6058 58.1258 11.6058L64.4064 3.36043C64.3635 3.41411 64.4709 3.22086 64.2132 3.22086ZM7.28988 10.6503H5.32515C5.17485 10.6503 5.02454 10.5 5.02454 10.3497V1.55675C5.02454 1.40644 5.17485 1.25613 5.32515 1.25613H7.28988C12.1104 1.25613 14.6227 3.22086 14.6227 5.92638C14.6227 8.69632 12.0567 10.6503 7.28988 10.6503ZM51.2975 10.704H42.8159C41.6564 10.704 41.3558 10.3497 41.3558 9.44785V4.72392C41.3558 4.57362 41.5061 4.47699 41.6564 4.47699H46.5844C46.7347 4.47699 46.9386 4.57362 47.0353 4.68098L51.4586 10.4571C51.5015 10.6074 51.4586 10.704 51.2975 10.704Z" fill="#179EDB"/>
</svg>
