<svg width="170" height="42" viewBox="0 0 170 42" fill="none" xmlns="http://www.w3.org/2000/svg">
<path d="M12.7164 1.45733C4.14283 1.74825 0.297851 10.714 0.5 18.7087C0.706806 26.8876 6 31.5 13.4391 38C21 31 25.3905 24.6242 25.8701 18.7087C26.6922 8.56782 21.29 1.16641 12.7164 1.45733Z" fill="white"/>
<path d="M21.5172 13.2321C21.5172 17.2631 17.9005 22.5159 13.4391 22.5159C8.97774 22.5159 5.36106 17.2631 5.36106 13.2321C5.36106 9.20118 8.97774 5.93346 13.4391 5.93346C17.9005 5.93346 21.5172 9.20118 21.5172 13.2321Z" fill="#9D2EC1"/>
<path d="M38.1074 13.0191H38.9946C40.6359 10.121 42.8982 7.9363 46.447 7.9363C50.8386 7.9363 53.2784 11.0573 53.2784 15.8726V32.1019H46.8019V17.879C46.8019 15.2038 45.338 13.465 42.7652 13.465C40.2366 13.465 38.1074 15.7389 38.1074 18.1019V32.1019H31.6308V8.6051H37.5307L38.1074 13.0191Z" fill="white"/>
<path d="M73.606 24.3439H79.5059C77.9533 29.4713 73.3842 32.7707 68.1497 32.7707C60.786 32.7707 55.9951 27.8217 55.9951 20.4204C55.9951 12.9745 60.8304 7.9363 68.1941 7.9363C75.2917 7.9363 79.8164 13.0637 79.8164 20.9554V21.8917H62.1612C62.516 25.5032 64.8671 27.8662 68.2828 27.8662C70.6339 27.8662 72.6744 26.5287 73.606 24.3439ZM62.2055 18.5924H73.9609C73.6504 15.2038 71.388 12.7962 68.1941 12.7962C65.0002 12.7962 62.6935 15.1592 62.2055 18.5924Z" fill="white"/>
<path d="M83.1922 32.1019V0H95.7017C104.574 0 108.744 4.94904 108.744 11.414C108.744 17.9236 104.441 22.5159 95.7017 22.5159H89.8019V32.1019H83.1922ZM89.8019 17.2548H95.3912C99.9159 17.2548 102.134 15.0701 102.134 11.414C102.134 7.80255 100.049 5.57325 95.3912 5.57325H89.8019V17.2548Z" fill="white"/>
<path d="M111.518 32.1019V0H117.995V32.1019H111.518Z" fill="white"/>
<path d="M137.163 27.7325H136.231C134.9 30.586 132.505 32.7707 129.222 32.7707C124.564 32.7707 121.992 29.293 121.992 24.4777V8.6051H128.468V22.828C128.468 25.5032 129.932 27.242 132.46 27.242C135.033 27.242 137.163 25.0127 137.163 22.6497V8.6051H143.639V32.1019H137.739L137.163 27.7325Z" fill="white"/>
<path d="M147.154 34.1083H153.143C153.764 35.9363 155.76 37.0955 158.022 37.0955C161.616 37.0955 163.567 34.242 163.567 30.4522L163.523 27.465H162.592C161.837 30.6306 159.309 32.7707 156.071 32.7707C150.437 32.7707 146.711 27.9554 146.711 20.5987C146.711 13.0637 150.614 7.9363 156.292 7.9363C159.398 7.9363 161.704 9.76433 162.592 13.0637H163.523L164.1 8.6051H170V30.4522C170.044 37.8981 165.874 42 157.845 42C152.478 42 148.042 39.1911 147.154 34.1083ZM158.377 13.5541C155.272 13.5541 153.187 16.3185 153.187 20.3758C153.187 24.4331 155.272 27.1975 158.377 27.1975C161.394 27.1975 163.523 24.6115 163.523 20.465C163.523 16.4968 161.438 13.5541 158.377 13.5541Z" fill="white"/>
</svg>
