<svg width="97" height="90" viewBox="0 0 97 90" fill="none" xmlns="http://www.w3.org/2000/svg">
<rect x="1" y="1" width="94.7019" height="87.9816" rx="7" stroke="#9D2EC1" stroke-width="2"/>
<path d="M44.1933 39.0107L43.6028 39H43.3021H42.7117V39.0107C36.8604 39.1825 35.0567 41.931 34.8206 44.4325H32.8773H32.319H30.3865H30.2469H29.2807H27.3374C27.1871 44.4433 27.069 44.5613 27.069 44.7224V45.4525C27.069 45.6028 27.1871 45.7316 27.3374 45.7423H29.2807H30.0752C30.2362 45.7531 30.3758 45.8819 30.3758 46.0429V47.6426V48.4264C30.2791 49.2423 29.5276 49.5322 27.8098 49.5429C23.3865 49.4356 21.0353 47.5567 21.0353 44.9908C21.0353 42.3497 23.5153 40.4279 28.1856 40.4279H29.3236H32.566C32.7163 40.4172 32.8344 40.2991 32.8344 40.138V39.4509C32.8344 39.3006 32.7163 39.1718 32.566 39.161H29.4095H29.3344H27.0475C18.2224 39.161 16 42.339 16 44.9693C16 47.6104 18.2224 50.7776 27.0475 50.7776H30.365C32.1043 50.7776 33.3497 50.6488 34.3374 50.0798C34.7025 49.865 35.2178 49.4678 35.2929 48.7914V48.7807C35.2929 48.7377 35.3037 48.6948 35.3037 48.6518V48.2117C35.3359 47.9969 35.4325 47.9862 35.454 47.9862C35.5399 47.9755 35.6043 47.9969 35.7331 48.115C36.7853 49.6396 38.8896 50.8528 42.7117 50.9709V50.9816H43.3021H43.6028H44.1933V50.9709C50.4954 50.7883 52.1058 47.6212 52.1058 44.9693C52.1058 42.3604 50.4954 39.1933 44.1933 39.0107ZM43.5061 49.8006C41.5199 49.8221 39.8773 47.6856 39.8558 45.0445C39.8236 42.4034 41.4233 40.2347 43.4095 40.2239C45.3957 40.2025 47.0276 42.339 47.0598 44.9801C47.0813 47.6212 45.4923 49.7791 43.5061 49.8006Z" fill="#E30613"/>
<path d="M80.5261 42.3069H79.1518C78.9049 42.3069 78.6902 42.5323 78.6795 42.543L73.4724 49.3605C73.3758 49.4894 73.2147 49.4786 73.1288 49.3498L68.319 42.543C68.319 42.5323 68.1365 42.3069 67.8037 42.3069H58.5706C58.4095 42.3069 58.2807 42.178 58.2807 42.017V39.7624C58.2807 39.4403 58.023 39.1826 57.7009 39.1826H54.4693H53.9969H53.6856C53.3635 39.1826 53.1058 39.4403 53.1058 39.7624V40.02V48.5231C53.1703 49.5967 53.9433 50.7992 56.069 50.7992H73.9018C74.3206 50.7992 74.5353 50.5308 74.5353 50.5308L80.6442 42.5001C80.6764 42.5001 80.8052 42.3069 80.5261 42.3069ZM67.954 49.586H59.7193C58.5706 49.586 58.3022 49.2639 58.3022 48.3728V43.7992C58.3022 43.6489 58.4203 43.52 58.5706 43.5093H63.3589C63.5092 43.52 63.6917 43.6059 63.7884 43.724L68.0828 49.3605C68.158 49.4894 68.115 49.586 67.954 49.586Z" fill="#008B3B"/>
</svg>
