<svg width="42" height="42" viewBox="0 0 42 42" fill="none" xmlns="http://www.w3.org/2000/svg">
<g id="icon / message-alt">
<g id="icon">
<path d="M10.5 17.5C10.5 16.5335 11.2835 15.75 12.25 15.75H21C21.9665 15.75 22.75 16.5335 22.75 17.5C22.75 18.4665 21.9665 19.25 21 19.25H12.25C11.2835 19.25 10.5 18.4665 10.5 17.5Z" fill="#9D2EC1"/>
<path d="M12.25 22.75C11.2835 22.75 10.5 23.5335 10.5 24.5C10.5 25.4665 11.2835 26.25 12.25 26.25H28C28.9665 26.25 29.75 25.4665 29.75 24.5C29.75 23.5335 28.9665 22.75 28 22.75H12.25Z" fill="#9D2EC1"/>
<path fill-rule="evenodd" clip-rule="evenodd" d="M1.75 28C1.75 31.866 4.88401 35 8.75 35H29.75C33.616 35 36.75 31.866 36.75 28V16.2692C36.75 15.6601 36.909 15.0616 37.2112 14.5327L38.5233 12.2365C39.8566 9.90319 38.1718 7 35.4844 7H8.75C4.88401 7 1.75 10.134 1.75 14V28ZM8.75 31.5C6.817 31.5 5.25 29.933 5.25 28V14C5.25 12.067 6.817 10.5 8.75 10.5H35.4844L34.1723 12.7962C33.5679 13.8539 33.25 15.051 33.25 16.2692V28C33.25 29.933 31.683 31.5 29.75 31.5H8.75Z" fill="#9D2EC1"/>
</g>
</g>
</svg>
