<svg width="72" height="18" viewBox="0 0 72 18" fill="none" xmlns="http://www.w3.org/2000/svg">
<g id="Vector">
<g id="Vector_2">
<path d="M5.85394 0.603752C2.30203 0.724277 0.70911 4.43866 0.792858 7.75074C0.878535 11.1391 3.07143 13.05 6.15336 15.7429C9.28571 12.8429 11.1046 10.2015 11.3033 7.75074C11.6439 3.54953 9.40585 0.483226 5.85394 0.603752Z" fill="white"/>
<path d="M9.5 5.48188C9.5 7.15184 8.00166 9.32802 6.15336 9.32802C4.30507 9.32802 2.80673 7.15184 2.80673 5.48188C2.80673 3.81192 4.30507 2.45815 6.15336 2.45815C8.00166 2.45815 9.5 3.81192 9.5 5.48188Z" fill="#9D2EC1"/>
<path d="M16.3731 5.39363H16.7406C17.4206 4.19299 18.3578 3.2879 19.8281 3.2879C21.6474 3.2879 22.6582 4.58089 22.6582 6.5758V13.2994H19.9751V7.40701C19.9751 6.29873 19.3686 5.57834 18.3027 5.57834C17.2552 5.57834 16.3731 6.52038 16.3731 7.49936V13.2994H13.6899V3.56497H16.1341L16.3731 5.39363Z" fill="white"/>
<path d="M31.0796 10.0854H33.5239C32.8806 12.2096 30.9877 13.5764 28.8192 13.5764C25.7685 13.5764 23.7837 11.5261 23.7837 8.45987C23.7837 5.37516 25.7869 3.2879 28.8376 3.2879C31.778 3.2879 33.6525 5.4121 33.6525 8.68153V9.06943H26.3382C26.4852 10.5656 27.4592 11.5446 28.8743 11.5446C29.8483 11.5446 30.6937 10.9904 31.0796 10.0854ZM26.3566 7.70255H31.2266C31.098 6.29873 30.1607 5.30127 28.8376 5.30127C27.5144 5.30127 26.5587 6.28025 26.3566 7.70255Z" fill="white"/>
<path d="M35.0511 13.2994V0H40.2336C43.9091 0 45.6366 2.05032 45.6366 4.72866C45.6366 7.42548 43.854 9.32802 40.2336 9.32802H37.7893V13.2994H35.0511ZM37.7893 7.14841H40.1049C41.9794 7.14841 42.8983 6.24331 42.8983 4.72866C42.8983 3.23248 42.0346 2.30892 40.1049 2.30892H37.7893V7.14841Z" fill="white"/>
<path d="M46.7862 13.2994V0H49.4693V13.2994H46.7862Z" fill="white"/>
<path d="M57.4102 11.4892H57.0243C56.473 12.6713 55.4806 13.5764 54.1206 13.5764C52.191 13.5764 51.1251 12.1357 51.1251 10.1408V3.56497H53.8082V9.45732C53.8082 10.5656 54.4147 11.286 55.4622 11.286C56.5281 11.286 57.4102 10.3624 57.4102 9.38344V3.56497H60.0933V13.2994H57.6491L57.4102 11.4892Z" fill="white"/>
<path d="M61.5496 14.1306H64.0306C64.2879 14.8879 65.1149 15.3682 66.0522 15.3682C67.5408 15.3682 68.3494 14.186 68.3494 12.6159L68.331 11.3783H67.9451C67.6326 12.6898 66.5851 13.5764 65.2435 13.5764C62.9096 13.5764 61.3659 11.5815 61.3659 8.53376C61.3659 5.4121 62.9831 3.2879 65.3354 3.2879C66.6219 3.2879 67.5775 4.04522 67.9451 5.4121H68.331L68.5699 3.56497H71.0141V12.6159C71.0325 15.7006 69.305 17.4 65.9787 17.4C63.755 17.4 61.9172 16.2363 61.5496 14.1306ZM66.1992 5.61529C64.9127 5.61529 64.049 6.76051 64.049 8.4414C64.049 10.1223 64.9127 11.2675 66.1992 11.2675C67.4489 11.2675 68.331 10.1962 68.331 8.47834C68.331 6.8344 67.4672 5.61529 66.1992 5.61529Z" fill="white"/>
</g>
</g>
</svg>
